<?xml version="1.0" standalone="no"?>
<!DOCTYPE svg PUBLIC "-//W3C//DTD SVG 20010904//EN"
 "http://www.w3.org/TR/2001/REC-SVG-20010904/DTD/svg10.dtd">
<svg version="1.0" xmlns="http://www.w3.org/2000/svg"
 width="2133.000000pt" height="2133.000000pt" viewBox="0 0 2133.000000 2133.000000"
 preserveAspectRatio="xMidYMid meet">
<metadata>
Created by potrace 1.11, written by Peter Selinger 2001-2013
</metadata>
<g transform="translate(0.000000,2133.000000) scale(0.100000,-0.100000)"
fill="#000000" stroke="none">
<path d="M0 10665 l0 -10665 10665 0 10665 0 0 10665 0 10665 -10665 0 -10665
0 0 -10665z m15170 5255 c528 -33 982 -118 1432 -270 995 -337 1847 -992 2367
-1822 67 -106 181 -308 181 -320 0 -8 -1386 -1018 -1397 -1018 -5 0 -39 57
-78 127 -593 1075 -1614 1664 -2884 1663 -1164 -1 -2157 -567 -2725 -1554
-205 -355 -355 -766 -425 -1166 -91 -514 -90 -1087 4 -1593 148 -803 565
-1532 1135 -1987 580 -462 1283 -677 2073 -631 498 28 839 114 1214 305 663
337 1102 955 1273 1790 11 54 20 107 20 117 0 19 -38 19 -1600 19 l-1600 0 0
765 0 765 2540 0 2540 0 0 -2650 0 -2650 -620 0 c-341 0 -620 2 -620 4 0 7
-390 1339 -393 1342 -1 2 -42 -52 -89 -119 -301 -422 -742 -809 -1203 -1053
-344 -182 -740 -296 -1228 -351 -218 -25 -787 -25 -1017 0 -602 66 -1118 211
-1635 461 -227 110 -360 185 -555 313 -819 539 -1445 1321 -1828 2284 -245
616 -364 1225 -379 1949 -19 923 151 1723 532 2495 250 505 533 903 920 1290
411 412 849 724 1380 981 819 397 1724 571 2665 514z m-5750 -1055 l0 -865
-1515 0 -1515 0 0 -4095 0 -4095 -935 0 -935 0 0 4095 0 4095 -1520 0 -1520 0
0 865 0 865 3970 0 3970 0 0 -865z"/>
</g>
</svg>
