<?xml version="1.0" encoding="utf-8"?>
<!-- Generator: Adobe Illustrator 19.2.1, SVG Export Plug-In . SVG Version: 6.00 Build 0)  -->
<svg version="1.1" id="Layer_1" xmlns="http://www.w3.org/2000/svg" xmlns:xlink="http://www.w3.org/1999/xlink" x="0px" y="0px"
	 viewBox="0 0 375 375" style="enable-background:new 0 0 375 375;" xml:space="preserve">
<style type="text/css">
	.st0{clip-path:url(#SVGID_2_);fill:#FFFFFF;}
	.st1{clip-path:url(#SVGID_4_);fill:#FFFFFF;}
	.st2{clip-path:url(#SVGID_6_);fill:#65D29B;}
</style>
<g>
	<defs>
		<rect id="SVGID_1_" y="-1" width="375" height="375.8"/>
	</defs>
	<clipPath id="SVGID_2_">
		<use xlink:href="#SVGID_1_"  style="overflow:visible;"/>
	</clipPath>
	<rect y="-1" class="st0" width="375" height="375.8"/>
</g>
<g>
	<defs>
		<rect id="SVGID_3_" y="-1" width="375" height="375"/>
	</defs>
	<clipPath id="SVGID_4_">
		<use xlink:href="#SVGID_3_"  style="overflow:visible;"/>
	</clipPath>
	<rect y="-1" class="st1" width="375" height="375"/>
</g>
<g>
	<defs>
		<rect id="SVGID_5_" x="52.7" y="13.1" width="269.6" height="346.9"/>
	</defs>
	<clipPath id="SVGID_6_">
		<use xlink:href="#SVGID_5_"  style="overflow:visible;"/>
	</clipPath>
	<path class="st2" d="M306.4,231.6c-5.5,13.8-33.1,83.9-38.7,112.2H153.4c-7-18.5-32.9-82-84.9-152.4V171c0-0.1,0-0.2,0-0.4
		l15.3-0.1c4.4,1.2,19.8,14.3,32.5,26.5v5.8h15.9V28.7l31.7,0.6V171h15.9v-63h23.8c2.8,0,8.2,4.9,8.2,8.2V171h15.9v-46.9h23.5
		c2.3,0,8.2,1.3,8.2,7.4v55.3h15.9v-47.5c10.8,0,31.2,20.7,31.2,31.6L306.4,231.6z M275.2,123.6h-1.5c-3.5-9.6-13.1-15.3-22.6-15.3
		h-25.4c-3.8-8.7-13.2-16.1-22.2-16.1h-23.8v-63c0-9.9-6.3-16.4-16.1-16.4h-31.5c-10.3,0-15.8,8.4-15.9,16.7v145.8
		c-15.1-13.6-25.8-20.5-31.7-20.5H68.2c-2.7,0-7.3-0.1-11.2,3.7c-2.9,2.8-4.3,6.9-4.3,12.5v25.6l1.6,2.1
		c60.2,80.9,85.8,154.8,86.1,155.6l1.8,5.3h140.5v-7.9c0-13.1,24-77.9,39.1-115.7l0.6-65C322.3,151.5,294.6,123.6,275.2,123.6z"/>
</g>
</svg>
